<?xml version="1.0" encoding="UTF-8" standalone="no"?>
<!-- Creator: CorelDRAW -->

<svg
   xml:space="preserve"
   width="399px"
   height="204px"
   style="shape-rendering:geometricPrecision; text-rendering:geometricPrecision; image-rendering:optimizeQuality; fill-rule:evenodd"
   viewBox="0 0 400 204"
   version="1.1"
   id="svg327"
   sodipodi:docname="VHS_logo.svg"
   inkscape:version="1.1.1 (3bf5ae0d25, 2021-09-20)"
   xmlns:inkscape="http://www.inkscape.org/namespaces/inkscape"
   xmlns:sodipodi="http://sodipodi.sourceforge.net/DTD/sodipodi-0.dtd"
   xmlns="http://www.w3.org/2000/svg"
   xmlns:svg="http://www.w3.org/2000/svg"><sodipodi:namedview
   id="namedview329"
   pagecolor="#ffffff"
   bordercolor="#666666"
   borderopacity="1.0"
   inkscape:pageshadow="2"
   inkscape:pageopacity="0.0"
   inkscape:pagecheckerboard="0"
   showgrid="false"
   inkscape:zoom="1.8101934"
   inkscape:cx="90.321843"
   inkscape:cy="90.87427"
   inkscape:window-width="1920"
   inkscape:window-height="1017"
   inkscape:window-x="1912"
   inkscape:window-y="-8"
   inkscape:window-maximized="1"
   inkscape:current-layer="svg327"
   inkscape:document-units="mm" />
 <defs
   id="defs310">
  <style
   type="text/css"
   id="style308">
   <![CDATA[
    .str0 {stroke:#000000;stroke-width:7}
    .fil1 {fill:none}
    .fil0 {fill:#000000}
   ]]>
  </style>
 </defs>
 <g
   id="Layer 1">
  <rect
   class="fil0"
   x="145"
   y="24"
   width="33"
   height="154"
   id="rect312" />
  <rect
   class="fil0"
   x="216"
   y="24"
   width="33"
   height="154"
   id="rect314" />
  <path
   class="fil0"
   d="M27 24l37 0 39 155 -37 0 -39 -155z"
   id="path316" />
  <path
   class="fil0"
   d="M131 24l-20 0c-1,1 -1,4 0,5 2,6 1,13 0,19l-30 131 15 0 35 -155z"
   id="path318" />
  <path
   class="fil0"
   d="M220 123l-73 0 -9 14 58 0c9,0 21,-7 24,-14z"
   id="path320" />
  <path
   class="fil0"
   d="M327 89c-51,-10 -34,-52 -5,-52l47 0 6 -13 -61 0c-18,0 -57,18 -52,53 2,23 18,32 47,40 50,12 34,48 12,48l-54 0 6 14 51 0c27,0 51,-19 51,-46 -1,-28 -16,-38 -48,-44z"
   id="path322" />
  <rect
   class="fil1 str0"
   x="8"
   y="7"
   width="386"
   height="190"
   id="rect324" />
 </g>
</svg>
